<svg viewBox="0 0 200 200" xmlns="http://www.w3.org/2000/svg">
  <path fill="#8B74B5" d="M27.4,-49.1C35.9,-42.6,43.4,-36,55,-27.8C66.6,-19.6,82.5,-9.8,84.6,1.2C86.6,12.2,75,24.4,62.9,31.8C50.7,39.1,38.1,41.7,27.6,50.8C17,59.9,8.5,75.5,-2.5,79.9C-13.6,84.3,-27.2,77.5,-36.6,67.7C-46,57.9,-51.2,45.3,-54.1,33.5C-57,21.7,-57.6,10.9,-60.2,-1.5C-62.8,-13.9,-67.4,-27.7,-64.9,-40.2C-62.4,-52.7,-52.8,-63.8,-40.8,-68.3C-28.8,-72.8,-14.4,-70.7,-2.5,-66.4C9.5,-62.1,19,-55.7,27.4,-49.1Z" transform="translate(100 100)" />
</svg>
<svg viewBox="0 0 200 200" xmlns="http://www.w3.org/2000/svg">
  <path fill="#8B74B5" d="M29.4,-46.5C42,-43.6,59,-43.7,71.1,-36.5C83.3,-29.2,90.7,-14.6,90.8,0.1C91,14.8,83.8,29.5,72.1,37.5C60.3,45.5,44,46.8,31.3,50C18.5,53.1,9.2,58.2,-3.6,64.5C-16.5,70.7,-33,78.2,-46.2,75.3C-59.5,72.4,-69.6,59.2,-70.5,44.9C-71.4,30.6,-63.2,15.3,-60.8,1.4C-58.4,-12.6,-62,-25.2,-58.9,-35.8C-55.9,-46.4,-46.3,-55,-35.4,-58.9C-24.5,-62.8,-12.2,-62.1,-1.9,-58.7C8.4,-55.4,16.7,-49.4,29.4,-46.5Z" transform="translate(100 100)" />
</svg>
<svg viewBox="0 0 200 200" xmlns="http://www.w3.org/2000/svg">
  <path fill="#8B74B5" d="M42,-72C52,-66.9,56,-50.8,58.1,-37C60.2,-23.1,60.3,-11.6,58.6,-1C56.9,9.6,53.4,19.2,51.4,33.1C49.4,47,48.7,65.2,40.4,76.8C32.1,88.4,16,93.4,1.4,91C-13.3,88.6,-26.5,78.7,-39.7,69.9C-52.8,61.1,-65.9,53.3,-67.6,41.9C-69.4,30.4,-59.9,15.2,-54.8,2.9C-49.8,-9.3,-49.2,-18.7,-45.8,-27.5C-42.5,-36.3,-36.5,-44.6,-28.4,-50.8C-20.3,-57,-10.2,-61.2,2.9,-66.2C16,-71.2,31.9,-77.1,42,-72Z" transform="translate(100 100)" />
</svg>
<svg viewBox="0 0 200 200" xmlns="http://www.w3.org/2000/svg">
  <path fill="#8B74B5" d="M33.9,-57C46.5,-51.5,60.9,-47.5,71.1,-38.2C81.3,-29,87.2,-14.5,88.2,0.6C89.1,15.6,85.2,31.2,77.4,44.6C69.6,58.1,58,69.2,44.5,70.2C31,71.1,15.5,61.7,1.4,59.2C-12.6,56.8,-25.3,61.2,-36.9,59.2C-48.5,57.2,-59.1,48.7,-62.9,37.8C-66.6,26.8,-63.5,13.4,-61.1,1.4C-58.8,-10.7,-57.1,-21.4,-53.4,-32.3C-49.6,-43.2,-43.8,-54.4,-34.5,-61.9C-25.3,-69.4,-12.6,-73.2,-1,-71.5C10.7,-69.8,21.3,-62.6,33.9,-57Z" transform="translate(100 100)" />
</svg>
<svg viewBox="0 0 200 200" xmlns="http://www.w3.org/2000/svg">
  <path fill="#8B74B5" d="M42.3,-70.9C54.6,-66.3,64,-54.3,68.1,-41.3C72.3,-28.3,71.1,-14.1,71.1,0C71.1,14.1,72.3,28.3,67,39.4C61.8,50.4,50.1,58.5,37.8,60C25.6,61.5,12.8,56.4,-0.3,56.9C-13.3,57.4,-26.7,63.3,-39.3,62.1C-52,60.8,-64,52.4,-65.9,40.8C-67.7,29.3,-59.3,14.6,-57.2,1.2C-55.2,-12.3,-59.4,-24.5,-58.1,-36.8C-56.7,-49.2,-49.7,-61.6,-39.1,-67.1C-28.5,-72.7,-14.2,-71.3,0.4,-72C15.1,-72.7,30.1,-75.5,42.3,-70.9Z" transform="translate(100 100)" />
</svg>
<svg viewBox="0 0 200 200" xmlns="http://www.w3.org/2000/svg">
  <path fill="#8B74B5" d="M39.1,-63.6C52.7,-59.9,67.1,-53.5,75.5,-42.4C83.8,-31.4,86.1,-15.7,84.4,-1C82.8,13.8,77.1,27.5,68.3,37.7C59.4,48,47.4,54.6,35.5,64C23.6,73.4,11.8,85.4,0.7,84.1C-10.3,82.8,-20.6,68.2,-33.8,59.6C-46.9,50.9,-62.9,48.2,-73.8,39.3C-84.8,30.3,-90.7,15.2,-85.9,2.7C-81.2,-9.7,-65.8,-19.4,-56,-30.3C-46.1,-41.1,-41.9,-53.2,-33.5,-60C-25.1,-66.8,-12.6,-68.3,0.1,-68.4C12.8,-68.6,25.5,-67.4,39.1,-63.6Z" transform="translate(100 100)" />
</svg>
<svg viewBox="0 0 200 200" xmlns="http://www.w3.org/2000/svg">
  <path fill="#8B74B5" d="M40,-68.7C51.8,-62.5,61.2,-51.6,65.2,-39.4C69.2,-27.2,67.8,-13.6,69.1,0.8C70.4,15.1,74.4,30.2,71.2,43.8C68.1,57.5,57.6,69.6,44.6,72.2C31.5,74.8,15.7,67.8,3.4,61.8C-8.9,55.9,-17.8,51.1,-30.6,48.4C-43.3,45.6,-59.9,44.9,-70,37.2C-80.2,29.5,-83.8,14.7,-82.9,0.5C-82,-13.7,-76.5,-27.4,-69.3,-40.1C-62.1,-52.8,-53.1,-64.6,-41.2,-70.7C-29.4,-76.9,-14.7,-77.4,-0.3,-76.9C14.1,-76.4,28.2,-74.9,40,-68.7Z" transform="translate(100 100)" />
</svg>
<svg viewBox="0 0 200 200" xmlns="http://www.w3.org/2000/svg">
  <path fill="#8B74B5" d="M38.4,-69.1C49,-60.4,56.4,-48.6,59.9,-36.6C63.5,-24.5,63.2,-12.3,66.6,2C70.1,16.3,77.3,32.6,75,46.7C72.7,60.8,60.8,72.8,46.7,79.6C32.6,86.3,16.3,87.8,0.7,86.7C-15,85.6,-30,81.8,-40.2,72.8C-50.4,63.8,-55.8,49.6,-62.7,36.6C-69.6,23.6,-77.9,11.8,-78.2,-0.2C-78.5,-12.1,-70.7,-24.2,-61.6,-33.5C-52.6,-42.8,-42.4,-49.2,-31.9,-58C-21.4,-66.7,-10.7,-77.8,1.6,-80.5C13.9,-83.3,27.8,-77.7,38.4,-69.1Z" transform="translate(100 100)" />
</svg>
<svg viewBox="0 0 200 200" xmlns="http://www.w3.org/2000/svg">
  <path fill="#8B74B5" d="M28.2,-48.6C38.6,-42.9,50.4,-39.4,61,-31.7C71.7,-24,81,-12,82.9,1.1C84.7,14.1,78.9,28.2,69.7,38.3C60.5,48.5,47.8,54.7,35.6,61.1C23.4,67.5,11.7,74.1,0.9,72.5C-9.9,71,-19.8,61.2,-28.5,52.8C-37.1,44.3,-44.5,37.1,-50.3,28.6C-56.2,20,-60.4,10,-65.2,-2.8C-70,-15.5,-75.3,-31.1,-71.2,-42.6C-67.1,-54,-53.4,-61.5,-40,-65.4C-26.5,-69.4,-13.3,-69.9,-2.2,-66.1C8.9,-62.4,17.8,-54.4,28.2,-48.6Z" transform="translate(100 100)" />
</svg>
<svg viewBox="0 0 200 200" xmlns="http://www.w3.org/2000/svg">
  <path fill="#8B74B5" d="M32.2,-62.4C40.5,-50.9,45.2,-39.9,55.2,-29.5C65.2,-19.2,80.6,-9.6,84.8,2.4C89,14.5,82.1,28.9,72.4,39.9C62.8,51,50.5,58.6,38,61.6C25.5,64.7,12.7,63.2,-0.6,64.3C-13.9,65.3,-27.8,68.8,-37.8,64.3C-47.7,59.7,-53.7,47.1,-55.3,35C-56.9,23,-54.1,11.5,-52.3,1.1C-50.4,-9.3,-49.5,-18.7,-46.9,-29C-44.3,-39.3,-40,-50.5,-31.9,-62.1C-23.8,-73.6,-11.9,-85.5,0,-85.5C11.9,-85.6,23.9,-73.8,32.2,-62.4Z" transform="translate(100 100)" />
</svg>